<?xml version="1.0" encoding="UTF-8"?>
<svg version="1.1" xmlns="http://www.w3.org/2000/svg" width="1112" height="1223">
<path d="M0 0 C5.69383128 -0.17755077 11.35632131 -0.10154512 17.04833984 0.109375 C18.94060303 0.17898437 18.94060303 0.17898437 20.87109375 0.25 C113.92362437 3.88215193 203.16802113 31.6155403 330.45849609 123.73046875 C332.47668695 125.58428207 334.52112201 127.36881784 336.60302734 129.1484375 C341.80255992 133.68378508 346.6549809 138.56609874 351.52124023 143.4519043 C353.10793931 145.04396466 354.69991726 146.6306049 356.29248047 148.21679688 C361.75480763 153.67518192 367.05644772 159.21281917 372.04833984 165.109375 C373.03272084 166.23941159 374.01836674 167.36834775 375.00537109 168.49609375 C381.64930265 176.15397245 388.00627659 183.96639128 394.04833984 192.109375 C394.53915039 192.7688916 395.02996094 193.4284082 395.53564453 194.10791016 C448.99495501 266.23634433 481.73130044 350.86226802 491.04833984 448.109375 C491.1330957 449.0384668 491.21785156 449.96755859 491.30517578 450.92480469 C491.7709844 456.32060691 491.9691704 461.69491309 492.04833984 467.109375 C492.06880371 468.39295898 492.08926758 469.67654297 492.11035156 470.99902344 C493.44697029 564.90743929 471.14834957 656.62284466 422.04833984 737.109375 C421.17846212 738.55593784 420.30866322 740.00254808 419.43896484 741.44921875 C403.19490941 768.19352084 383.70229095 792.71669889 362.43261719 815.60742188 C361.02671179 817.13284163 359.63944551 818.67351294 358.25537109 820.21875 C350.86319284 828.42766705 342.97998612 836.00741825 334.83740234 843.46875 C333.31761136 844.86244479 331.80696971 846.26610627 330.29833984 847.671875 C324.68564505 852.84146231 318.77529721 857.55382811 312.74755859 862.22265625 C310.26570676 864.14788012 307.81294589 866.10273381 305.38037109 868.08984375 C296.582024 875.26998368 287.50645649 881.82759395 278.04833984 888.109375 C277.40767578 888.54040527 276.76701172 888.97143555 276.10693359 889.41552734 C237.74044959 915.19664197 196.34622539 934.25135991 152.49365234 948.453125 C151.80142075 948.67777435 151.10918915 948.90242371 150.39598083 949.13388062 C146.76097218 950.29696689 143.11909766 951.37541203 139.43041992 952.35595703 C138.66990326 952.56297241 137.9093866 952.76998779 137.12582397 952.98327637 C135.68760315 953.37063074 134.2451189 953.74265934 132.79800415 954.09533691 C124.81867132 956.2579724 120.32618703 962.09938743 115.04833984 968.109375 C113.7210644 969.32685744 112.36993252 970.5193946 110.98583984 971.671875 C107.15359074 974.93048182 103.64606485 978.48303165 100.11669922 982.06054688 C96.89451497 985.30954542 93.5548451 988.33388892 90.07568359 991.30078125 C87.63405351 993.47895992 85.34785953 995.78185508 83.04833984 998.109375 C80.15242027 1001.04055691 77.24591413 1003.87340674 74.11083984 1006.546875 C70.75908888 1009.41109855 67.64277567 1012.47271593 64.54833984 1015.609375 C60.87986764 1019.3278349 57.11684759 1022.84605692 53.14208984 1026.234375 C50.00313637 1029.04537811 47.07483304 1032.06205297 44.11694336 1035.06030273 C40.89467536 1038.30938107 37.55493339 1041.33381363 34.07568359 1044.30078125 C31.63405351 1046.47895992 29.34785953 1048.78185508 27.04833984 1051.109375 C24.15242027 1054.04055691 21.24591413 1056.87340674 18.11083984 1059.546875 C14.24611148 1062.84946106 10.69485753 1066.43333669 7.12817383 1070.04907227 C3.80462297 1073.40044012 0.36247106 1076.54200986 -3.22509766 1079.60546875 C-5.58881015 1081.66435859 -7.7701575 1083.85970038 -9.95166016 1086.109375 C-10.94166016 1085.779375 -11.93166016 1085.449375 -12.95166016 1085.109375 C-13.95342381 1082.43687545 -14.74638282 1079.88011068 -15.47607422 1077.13085938 C-15.70910751 1076.29304932 -15.94214081 1075.45523926 -16.18223572 1074.59204102 C-16.95591851 1071.79889154 -17.71152404 1069.00117204 -18.46728516 1066.203125 C-19.00561781 1064.24631525 -19.5450849 1062.28981727 -20.08563232 1060.33361816 C-21.51444991 1055.15119661 -22.92814456 1049.96476551 -24.33868408 1044.77734375 C-25.7492461 1039.59919741 -27.17303816 1034.42469718 -28.59619141 1029.25 C-30.24117969 1023.26583918 -31.88451177 1017.28124953 -33.5189209 1011.29418945 C-35.75633272 1003.09884768 -37.99462804 994.9044474 -40.30908203 986.73046875 C-40.64429871 985.54569946 -40.97951538 984.36093018 -41.32489014 983.14025879 C-41.91698575 981.05710577 -42.51242784 978.9748993 -43.11212158 976.8939209 C-43.36177673 976.01691528 -43.61143188 975.13990967 -43.86865234 974.23632812 C-44.08076355 973.50063599 -44.29287476 972.76494385 -44.51141357 972.00695801 C-44.95166016 970.109375 -44.95166016 970.109375 -44.95166016 967.109375 C-45.86842529 967.06256592 -46.78519043 967.01575684 -47.72973633 966.9675293 C-56.68427286 966.44946049 -65.41515573 965.44405527 -74.26416016 963.921875 C-75.5603125 963.70047852 -76.85646484 963.47908203 -78.19189453 963.25097656 C-101.27705085 959.24099823 -123.647961 953.20229733 -145.95166016 946.109375 C-146.8657666 945.81981934 -147.77987305 945.53026367 -148.72167969 945.23193359 C-190.53226093 931.79369881 -231.08724326 911.41131303 -266.95166016 886.109375 C-267.6501709 885.61904785 -268.34868164 885.1287207 -269.06835938 884.62353516 C-279.08825741 877.56381492 -288.81855561 870.21117419 -298.30566406 862.45117188 C-299.81876431 861.21771015 -301.34366067 859.99875611 -302.86962891 858.78125 C-309.63806823 853.35087156 -315.99267731 847.54841202 -322.32421875 841.62353516 C-324.42653484 839.6675549 -326.55172629 837.73752054 -328.67773438 835.80737305 C-336.19671187 828.97139142 -343.46121814 821.98174386 -350.08056641 814.26171875 C-352.28245844 811.72885338 -354.55361841 809.26604978 -356.82666016 806.796875 C-361.74397 801.39226418 -366.40695936 795.82868045 -370.95166016 790.109375 C-371.46212891 789.4714502 -371.97259766 788.83352539 -372.49853516 788.17626953 C-381.54176875 776.84845736 -389.98043613 765.21493723 -397.95166016 753.109375 C-398.44875488 752.3560791 -398.94584961 751.6027832 -399.45800781 750.82666016 C-419.74145484 719.89022645 -436.31865709 686.86210557 -448.95166016 652.109375 C-449.59312988 650.3456958 -449.59312988 650.3456958 -450.24755859 648.54638672 C-463.49576606 611.60484833 -472.00185976 573.15115203 -475.95166016 534.109375 C-476.05607422 533.08602051 -476.16048828 532.06266602 -476.26806641 531.00830078 C-487.05362228 419.99557777 -458.357183 303.57954843 -386.35644531 200.97705078 C-385.04719156 199.23638495 -383.75267673 197.48594154 -382.46337891 195.73046875 C-377.49781628 189.01538146 -372.30369017 182.51946696 -366.95166016 176.109375 C-366.53158691 175.60293457 -366.11151367 175.09649414 -365.67871094 174.57470703 C-354.97016376 161.67442161 -343.53424214 149.60141452 -331.70166016 137.734375 C-331.18205719 137.2120932 -330.66245422 136.6898114 -330.12710571 136.15170288 C-324.25023656 130.25188309 -318.31726175 124.48705793 -311.95166016 119.109375 C-310.89535416 118.19698077 -309.83934844 117.28423876 -308.78369141 116.37109375 C-290.58294302 100.8545437 -271.24210792 86.76845966 -250.95166016 74.109375 C-250.20787109 73.64208984 -249.46408203 73.17480469 -248.69775391 72.69335938 C-234.22629196 63.64563486 -219.19774101 55.76456972 -203.95166016 48.109375 C-203.15695312 47.70734863 -202.36224609 47.30532227 -201.54345703 46.89111328 C-138.96701952 15.4434087 -69.39549658 2.57147911 0 0 Z M-234.95166016 132.109375 C-235.65210449 132.59873535 -236.35254883 133.0880957 -237.07421875 133.59228516 C-250.8491495 143.26455777 -264.15979134 153.49895859 -276.54541016 164.9140625 C-277.88427883 166.13556282 -279.23133825 167.34878109 -280.6081543 168.52734375 C-286.28175761 173.38939624 -291.60683854 178.57838907 -296.88745117 183.85986328 C-298.37807631 185.34830737 -299.87653033 186.82854777 -301.37548828 188.30859375 C-306.94937297 193.85077111 -312.12612218 199.5373346 -317.01708984 205.70727539 C-318.85486111 207.98918245 -320.77196959 210.14962993 -322.76416016 212.296875 C-328.64330819 218.85125191 -333.7688955 226.00222869 -338.95166016 233.109375 C-339.45777832 233.8012793 -339.96389648 234.49318359 -340.48535156 235.20605469 C-351.41478004 250.21247307 -360.98629621 265.9618064 -369.91503906 282.22851562 C-370.89856533 284.01303902 -371.89925124 285.78807343 -372.90087891 287.5625 C-398.67230996 334.19153955 -412.99624482 387.43372638 -418.95166016 440.109375 C-419.07025391 441.15673828 -419.18884766 442.20410156 -419.31103516 443.28320312 C-427.59184172 520.52144058 -412.65437487 598.97430215 -379.95166016 669.109375 C-379.51112305 670.05683594 -379.07058594 671.00429688 -378.61669922 671.98046875 C-363.87165169 703.33527708 -344.2497118 732.63748907 -321.95166016 759.109375 C-321.52481934 759.62113281 -321.09797852 760.13289062 -320.65820312 760.66015625 C-309.52218136 773.99632808 -297.84540084 786.92902737 -284.86962891 798.50390625 C-282.82178272 800.33243825 -280.80834583 802.17304028 -278.81494141 804.05859375 C-271.21117947 811.24011675 -263.29960552 817.81205376 -254.95166016 824.109375 C-254.22672363 824.65883789 -253.50178711 825.20830078 -252.75488281 825.77441406 C-179.22765795 881.32693873 -86.80773299 915.61648897 6.04833984 913.109375 C6.3727002 914.44162109 6.3727002 914.44162109 6.70361328 915.80078125 C9.70034605 927.95948002 12.98592655 940.03344258 16.29833984 952.109375 C16.85839546 954.15620629 17.41829232 956.20308102 17.97802734 958.25 C19.33297303 963.20362653 20.69005003 968.15666445 22.04833984 973.109375 C25.17961564 971.32844732 27.81223066 969.5884617 30.31787109 967 C30.89239014 966.41387939 31.46690918 965.82775879 32.05883789 965.22387695 C32.95082886 964.30094849 32.95082886 964.30094849 33.86083984 963.359375 C38.12772446 959.01295235 42.40715807 954.81444309 47.06005859 950.87890625 C50.1704077 948.11075665 53.0576097 945.12043559 55.98046875 942.15771484 C59.2024855 938.90887589 62.54201116 935.8847105 66.02099609 932.91796875 C69.36440155 929.9353161 72.45910354 926.70580808 75.60693359 923.51953125 C78.32478242 920.83647089 81.15280072 918.34904268 84.07958984 915.8984375 C86.13164211 914.10709968 86.13164211 914.10709968 88.01708984 911.8203125 C93.78859512 905.20892399 99.33997664 903.41429333 107.66455078 901.64453125 C136.52315258 895.16582835 164.35425266 884.69676036 191.04833984 872.109375 C192.37454346 871.4915918 192.37454346 871.4915918 193.72753906 870.86132812 C214.82016605 860.97505882 235.24028451 848.8504966 254.04833984 835.109375 C255.08345703 834.35527344 256.11857422 833.60117187 257.18505859 832.82421875 C260.16410023 830.61622319 263.11151185 828.37317991 266.04833984 826.109375 C266.61294922 825.67625 267.17755859 825.243125 267.75927734 824.796875 C274.68145233 819.47677545 281.40917966 814.04928961 287.84130859 808.13671875 C289.7766327 806.35896086 291.74237001 804.63361248 293.73583984 802.921875 C304.46684672 793.53767465 314.56916868 783.75342127 324.04833984 773.109375 C325.29164063 771.77326172 325.29164063 771.77326172 326.56005859 770.41015625 C333.17266475 763.29926893 339.1562338 755.81505403 345.04833984 748.109375 C345.53061035 747.48401855 346.01288086 746.85866211 346.50976562 746.21435547 C410.6256799 662.97577986 441.40257601 558.41085473 431.7824707 429.67260742 C420.18357287 345.80140419 384.9419504 264.11944637 327.24365234 201.515625 C326.01657662 200.1706452 324.79794057 198.81737027 323.61279297 197.43530273 C318.88229106 191.9217488 313.86170594 186.7365582 308.72509766 181.60083008 C307.30914037 180.18269216 305.90135695 178.75640835 304.49365234 177.33007812 C299.06293826 171.88801854 293.48405521 166.8367261 287.46191406 162.05541992 C285.1999752 160.23163733 283.05419353 158.33343054 280.92333984 156.359375 C205.06124293 88.41916077 97.36339875 54.75105895 -234.95166016 132.109375 Z " fill="#0C9DD3" transform="translate(542.95166015625,74.890625)"/>
<path d="M0 0 C1.46832275 0.22550537 1.46832275 0.22550537 2.96630859 0.45556641 C66.20713212 10.74809861 128.91473058 47.95382686 168.73046875 98.171875 C170.75720301 100.69744403 172.85277311 103.14472927 174.98242188 105.58349609 C201.19616091 135.77709103 219.71531903 173.60242022 233 211 C233.33253784 211.83962784 233.66507568 212.67925568 234.00769043 213.54432678 C237.01492934 221.61048051 237.60409201 228.94493001 237.609375 237.48828125 C237.62463944 238.9873002 237.64145417 240.48630396 237.65962219 241.98529053 C237.70487411 246.19534258 237.72394067 250.40518056 237.73842239 254.61543655 C237.75408469 258.26404891 237.78458801 261.91248469 237.81448841 265.56100368 C238.40633783 339.36869464 238.08298569 413.1906473 238 487 C235.26608375 487.01797439 232.53228672 487.03112605 229.79833984 487.04150391 C229.02751572 487.04706802 228.25669159 487.05263214 227.46250916 487.05836487 C211.57946881 487.10358841 197.80216525 481.35744715 186.28515625 470.40625 C176.89450134 460.51797065 170.90067777 447.91424732 170.85282898 434.19056702 C170.84915229 433.50620132 170.8454756 432.82183563 170.8416875 432.11673158 C170.83067666 429.82398855 170.82681117 427.53129088 170.82299805 425.23852539 C170.81673117 423.5940232 170.81008417 421.94952243 170.80308533 420.30502319 C170.78206004 414.90257754 170.77168081 409.50013167 170.76171875 404.09765625 C170.7576699 402.23441491 170.75355293 400.37117371 170.74936867 398.50793266 C170.73031627 389.74870262 170.71608826 380.98948098 170.7077567 372.23023421 C170.6979994 362.13990464 170.67171956 352.04979532 170.63125581 341.95954329 C170.60101526 334.14870655 170.58628011 326.33793263 170.58297569 318.52703851 C170.58063324 313.86803976 170.57177901 309.20927627 170.54651451 304.55034065 C170.52309104 300.15980344 170.51905738 295.76965398 170.52927589 291.37907028 C170.529768 289.7767946 170.52354469 288.17449891 170.50971985 286.57228279 C170.41211046 274.57846839 171.26915772 262.98005755 179.0625 253.25 C181.40377092 249.41974094 182.074397 247.68139306 181.58203125 243.171875 C180.62183639 239.45968124 179.29408574 235.90122851 177.89550781 232.33447266 C176.98673144 229.96541059 176.18204543 227.581114 175.3984375 225.16796875 C165.23018188 194.14912817 149.5685545 164.37811699 129 139 C128.27425781 138.0821875 127.54851562 137.164375 126.80078125 136.21875 C120.87988588 128.82028828 114.5089564 121.87848156 108 115 C107.36191406 114.319375 106.72382812 113.63875 106.06640625 112.9375 C101.11865187 107.81176885 95.58368297 103.40749789 90 99 C89.36739258 98.49629883 88.73478516 97.99259766 88.08300781 97.47363281 C78.46038482 89.83714127 68.73052864 82.97937736 58 77 C57.3512793 76.6292334 56.70255859 76.2584668 56.03417969 75.87646484 C11.11546745 50.27563492 -43.59669381 42.86528555 -93.65673828 55.89257812 C-122.20674669 63.73629933 -148.80405844 76.50323626 -172 95 C-172.8971875 95.70511719 -173.794375 96.41023438 -174.71875 97.13671875 C-182.1392606 103.07525956 -189.10105607 109.47168051 -196 116 C-196.680625 116.63808594 -197.36125 117.27617187 -198.0625 117.93359375 C-202.69969773 122.40977767 -206.69851438 127.37341771 -210.71386719 132.40625 C-212.06374697 134.07899397 -213.43966483 135.72758312 -214.8203125 137.375 C-239.00912513 166.50291044 -255.28116427 201.75325607 -266.8515625 237.55859375 C-267.224021 238.70606079 -267.224021 238.70606079 -267.60400391 239.87670898 C-268.2567092 243.37644877 -267.35057126 245.43227699 -265.51171875 248.41015625 C-264.90972656 249.28542969 -264.30773437 250.16070312 -263.6875 251.0625 C-257.83913985 260.03318795 -254.88598172 269.12799926 -254.85955811 279.82252502 C-254.85658698 280.49620005 -254.85361586 281.16987508 -254.8505547 281.8639645 C-254.84190446 284.11448188 -254.84036256 286.36494584 -254.83886719 288.61547852 C-254.83423627 290.23219414 -254.82921125 291.84890867 -254.82382202 293.46562195 C-254.81071915 297.85442097 -254.80425676 302.24320471 -254.79981136 306.63202024 C-254.79687619 309.37779459 -254.79277046 312.12356481 -254.78830719 314.86933708 C-254.77463553 323.4710531 -254.76496822 332.07275962 -254.7611053 340.67448574 C-254.75663039 350.58309455 -254.73910746 360.491565 -254.7101047 370.40013176 C-254.68843442 378.07169707 -254.67839811 385.74322361 -254.67706418 393.41481918 C-254.67601964 397.99044777 -254.6701873 402.56594625 -254.65224457 407.14154243 C-254.63567202 411.45160864 -254.63365256 415.76144824 -254.64238358 420.07153511 C-254.64314916 421.64519867 -254.63887509 423.21887488 -254.62892532 424.79250717 C-254.55891293 436.56505609 -255.51551186 447.45518625 -261.375 457.875 C-261.97957031 458.96167969 -262.58414063 460.04835938 -263.20703125 461.16796875 C-264.69984403 463.52589743 -266.08346699 465.26268707 -268.0625 467.1875 C-270.22034533 469.71322918 -270.22034533 469.71322918 -269.90551758 472.05126953 C-268.44790828 478.88037455 -266.25099906 485.2231878 -263.625 491.6875 C-263.18655762 492.76966797 -262.74811523 493.85183594 -262.29638672 494.96679688 C-252.17224966 519.41834812 -238.92436462 540.57720845 -221 560 C-220.53239258 560.50756836 -220.06478516 561.01513672 -219.58300781 561.53808594 C-212.39657752 569.24189782 -204.47578023 575.79038539 -196 582 C-195.15042725 582.62406738 -195.15042725 582.62406738 -194.28369141 583.26074219 C-166.27526756 603.52967904 -133.5810446 614.99004039 -100 622 C-99.731875 621.23945312 -99.46375 620.47890625 -99.1875 619.6953125 C-97.14787808 615.06590749 -93.62516052 612.27879751 -89.10522461 610.07699585 C-80.17367711 607.02336323 -70.88025707 607.56627577 -61.5625 607.6015625 C-59.67260628 607.5995379 -57.78271333 607.59662326 -55.89282227 607.59286499 C-51.94572458 607.58845982 -47.99883157 607.59481421 -44.05175781 607.60888672 C-39.01507776 607.62597745 -33.97887746 607.61612654 -28.94221497 607.59816933 C-25.04378707 607.5872825 -21.14547123 607.59080022 -17.24703979 607.5985527 C-15.39085838 607.60054119 -13.53466649 607.59814343 -11.67849731 607.59111404 C12.06901274 607.52089798 12.06901274 607.52089798 19.375 614.125 C19.98085938 614.64320313 20.58671875 615.16140625 21.2109375 615.6953125 C26.63589864 622.68379956 27.60116603 629.67921083 27.53125 638.31640625 C27.5350769 639.37230453 27.53890381 640.42820282 27.54284668 641.51609802 C27.54555417 643.7355953 27.53827504 645.95512513 27.52148438 648.17456055 C27.5000377 651.55655475 27.52133803 654.93642998 27.546875 658.31835938 C27.54423194 660.48437965 27.53910741 662.65039861 27.53125 664.81640625 C27.53934692 665.81869766 27.54744385 666.82098907 27.55578613 667.85365295 C27.47173858 674.19531635 26.37194324 678.62065561 23 684 C22.46375 684.886875 21.9275 685.77375 21.375 686.6875 C11.86449966 695.94772402 0.125601 694.71864361 -12.2578125 694.62890625 C-14.33185958 694.62973602 -16.40590659 694.63219949 -18.47994995 694.63621521 C-22.81219436 694.63906395 -27.14391911 694.62445964 -31.47607422 694.59692383 C-37.01528867 694.56280031 -42.55357724 694.5688825 -48.09283638 694.5875864 C-52.37038833 694.5981773 -56.64772654 694.58920023 -60.92525864 694.57420158 C-62.96729777 694.56903756 -65.00935937 694.56947984 -67.05139542 694.57574654 C-69.90860941 694.58122573 -72.76451712 694.56073868 -75.62158203 694.53344727 C-76.4560788 694.53997314 -77.29057556 694.54649902 -78.15036011 694.55322266 C-85.2613639 694.4383193 -90.37541471 692.26668729 -95.75 687.625 C-98.56981956 684.33521051 -101.27006384 681.01685455 -102.75732422 676.9074707 C-103.88483931 674.7555104 -103.88483931 674.7555104 -106.50830078 674.10620117 C-107.56001465 673.92033447 -108.61172852 673.73446777 -109.6953125 673.54296875 C-110.87383789 673.32157227 -112.05236328 673.10017578 -113.26660156 672.87207031 C-114.53987305 672.64616211 -115.81314453 672.42025391 -117.125 672.1875 C-119.79186133 671.6792672 -122.45485362 671.15248895 -125.1171875 670.62109375 C-126.1232605 670.4212236 -126.1232605 670.4212236 -127.1496582 670.21731567 C-166.71951439 662.23640114 -206.06255488 644.00632723 -237 618 C-238.14562534 617.05834064 -239.2914624 616.11693882 -240.4375 615.17578125 C-253.54565857 604.29322534 -265.53429845 592.4611007 -275.68945312 578.75927734 C-277.01797091 576.97587587 -278.37360037 575.21590484 -279.734375 573.45703125 C-294.32103413 554.37820657 -305.23031832 532.61597871 -314.06396484 510.34960938 C-314.66920939 508.83034137 -315.28598202 507.31559337 -315.91650391 505.80664062 C-319.69959456 496.67374591 -321.39967583 488.32706174 -321.6431427 478.43389893 C-321.67797817 477.34332664 -321.71281364 476.25275435 -321.74870473 475.12913442 C-322.09166366 463.64900518 -322.20678928 452.16712423 -322.2722168 440.68261719 C-322.28836629 438.37133123 -322.30474621 436.06004688 -322.32133484 433.74876404 C-322.46479335 412.82083984 -322.54113212 391.89239921 -322.60025311 370.964077 C-322.60827658 368.17445584 -322.61644577 365.38483516 -322.62475586 362.59521484 C-322.62681346 361.90220245 -322.62887106 361.20919006 -322.63099102 360.4951773 C-322.66539899 349.27401052 -322.73810701 338.05341508 -322.82566347 326.83255085 C-322.91546415 315.22526546 -322.96549681 303.61830736 -322.98155528 292.01068425 C-322.99162942 285.52791946 -323.01819524 279.04628679 -323.08786583 272.56386566 C-323.61125596 221.67626364 -323.61125596 221.67626364 -313.3239994 199.81842804 C-311.45484337 195.83951253 -309.81791466 191.7725888 -308.154109 187.70457077 C-306.22517041 183.07978266 -304.12555992 178.5370921 -302 174 C-301.59813477 173.14116211 -301.19626953 172.28232422 -300.78222656 171.39746094 C-280.41459382 128.34806474 -249.3539977 85.76549827 -211 57 C-209.81685202 56.07792063 -208.63463108 55.15465104 -207.453125 54.23046875 C-183.54445046 35.70478544 -156.72321468 20.59777025 -128 11 C-127.1042627 10.69513672 -126.20852539 10.39027344 -125.28564453 10.07617188 C-84.80734135 -3.53738419 -42.14502525 -6.4773007 0 0 Z " fill="#394256" transform="translate(591,215)"/>
<path d="M0 0 C1.02311279 0.48871582 1.02311279 0.48871582 2.06689453 0.98730469 C20.50537425 9.95787839 36.70548758 22.23665585 51.7890625 36.01171875 C53.55080083 37.5960382 55.33088787 39.09390998 57.1875 40.5625 C60.11713678 43.10151854 62.54006763 45.78823876 65.04296875 48.73828125 C66.38440271 50.28856122 67.76465807 51.80584252 69.17578125 53.29296875 C86.25016294 71.3174797 99.50480425 92.77358753 110.11181641 115.13818359 C110.97674864 116.95126035 111.86889474 118.75127566 112.76171875 120.55078125 C129 153.93960674 129 153.93960674 129 168 C101.84647308 177.54544891 74.49545316 184.67943371 46 189 C44.93007813 189.16516113 43.86015625 189.33032227 42.7578125 189.50048828 C12.37511596 193.99010741 -20.72559495 194.52649424 -51 189 C-51.96019043 188.82839355 -52.92038086 188.65678711 -53.90966797 188.47998047 C-92.3769781 181.38271418 -128.50291429 165.07223143 -157 138 C-158.3486155 136.84763825 -159.70241463 135.70130164 -161.0625 134.5625 C-171.73310335 125.21219442 -181.49164562 113.31798722 -188.72265625 101.0859375 C-189.8299989 98.86448874 -189.8299989 98.86448874 -192 98 C-192.20625 98.763125 -192.4125 99.52625 -192.625 100.3125 C-201.34833916 123.70690958 -221.65442462 143.4557216 -243.98657227 153.97631836 C-259.40128996 160.85658704 -282.02035677 167.73676002 -299 163 C-297.07873502 154.48172383 -294.49950187 146.43734231 -291.3125 138.3125 C-290.86825684 137.17401611 -290.42401367 136.03553223 -289.96630859 134.86254883 C-277.70074178 103.78053749 -260.67375933 76.04614974 -238.12109375 51.34375 C-236.18168497 49.20075688 -234.30670701 47.01655362 -232.4375 44.8125 C-229.62710694 41.59970975 -226.65609242 38.77753204 -223.39453125 36.02734375 C-221.57020156 34.48276446 -219.78642183 32.91625625 -218.01171875 31.31640625 C-158.41752258 -21.88231521 -71.9903422 -34.48289797 0 0 Z " fill="#0C9DD3" transform="translate(633,298)"/>
<path d="M0 0 C0 86.13 0 172.26 0 261 C-21.83692202 261 -39.48977886 259.80287175 -55.625 244.8125 C-65.24472762 234.67942265 -71.09847309 222.02703535 -71.14717102 208.0703125 C-71.15084771 207.38509238 -71.1545244 206.69987226 -71.1583125 205.9938879 C-71.16930054 203.7042509 -71.1731849 201.41465936 -71.17700195 199.125 C-71.18327046 197.48035032 -71.18991761 195.83570204 -71.19691467 194.1910553 C-71.21791745 188.79404682 -71.22831591 183.3970382 -71.23828125 178 C-71.2423307 176.13768499 -71.24644768 174.27537013 -71.25063133 172.41305542 C-71.26967743 163.65916816 -71.28390773 154.90528929 -71.2922433 146.15138531 C-71.30200339 136.06955583 -71.32829322 125.98794661 -71.36874419 115.90619469 C-71.3989839 108.09958403 -71.41371974 100.29303623 -71.41702431 92.48636818 C-71.4193665 87.8307377 -71.42821761 83.17534267 -71.45348549 78.51977539 C-71.47690808 74.1333287 -71.48094298 69.74727012 -71.47072411 65.3607769 C-71.47023201 63.76011292 -71.47645505 62.15942889 -71.49028015 60.55882454 C-71.63201733 43.16077608 -67.42670147 29.17445949 -55.3828125 16.35546875 C-39.02053447 0.18095456 -23.46702386 0 0 0 Z " fill="#394256" transform="translate(255,441)"/>
<path d="M0 0 C24.3250632 0 38.53528573 0.47048815 55.6796875 16.59375 C65.51282969 26.79108264 71.09702713 39.66419723 71.14717102 53.84703064 C71.15084771 54.52337809 71.1545244 55.19972553 71.1583125 55.89656836 C71.16929918 58.15623241 71.17318468 60.4158504 71.17700195 62.67553711 C71.18327063 64.29886011 71.18991779 65.92218168 71.19691467 67.54550171 C71.21791773 72.8727723 71.22831681 78.20004304 71.23828125 83.52734375 C71.24233087 85.36611 71.24644786 87.2048761 71.25063133 89.04364204 C71.2696785 97.68807445 71.28390786 106.33249837 71.2922433 114.97694772 C71.30199992 124.9291574 71.32828019 134.88114373 71.36874419 144.83327478 C71.39899962 152.54138809 71.41372127 160.24943774 71.41702431 167.95760924 C71.41936497 172.55346924 71.4281956 177.14909053 71.45348549 181.7448864 C71.47693539 186.07634561 71.48093226 190.40741183 71.47072411 194.7389183 C71.47023264 196.31819918 71.4764365 197.89750053 71.49028015 199.47672081 C71.64096394 217.70394732 67.13103689 232.15913088 54.484375 245.67578125 C38.79065836 260.35779603 21.07673807 261 0 261 C0 174.87 0 88.74 0 0 Z " fill="#394256" transform="translate(843,441)"/>
</svg>
